<svg width="480" height="69" viewBox="0 0 480 69" fill="none" xmlns="http://www.w3.org/2000/svg">
<rect width="480" height="68.7771" fill="#01579B"/>
<path d="M221.635 40.9764C221.743 40.3706 221.797 39.7565 221.798 39.1413C221.798 33.8165 217.726 29.5054 212.642 29.5054C207.587 29.5054 203.486 33.8165 203.486 39.1413C203.486 44.466 207.61 48.7713 212.636 48.7713H213.166C215.134 48.6512 217.007 47.8785 218.488 46.575L218.663 46.3827L218.704 46.3419L218.837 46.2138L218.896 46.1613L219.012 46.039L219.07 45.9807L219.192 45.8526L219.245 45.7943C219.408 45.6137 219.565 45.4215 219.722 45.2117L216.918 42.8115C216.483 43.44 215.918 43.9675 215.261 44.3585C214.605 44.7495 213.873 44.9947 213.113 45.0777H212.98H212.852H212.415H212.229H212.159H212.055C210.978 44.9177 209.97 44.4468 209.156 43.7225C208.342 42.9983 207.756 42.0521 207.471 40.9997L221.635 40.9764ZM212.031 33.2106H212.136H212.206H212.392H212.887H213.073H213.143H213.253C214.329 33.3717 215.335 33.8431 216.148 34.5672C216.961 35.2914 217.546 36.2371 217.831 37.2887H207.448C207.733 36.2363 208.319 35.2901 209.133 34.5658C209.947 33.8416 210.954 33.3706 212.031 33.2106Z" fill="white"/>
<path d="M225.184 31.5211C223.864 29.1439 221.919 27.1751 219.559 25.8293L217.866 29.0859C219.334 29.9607 220.588 31.1527 221.537 32.5748C222.486 33.9969 223.106 35.6134 223.351 37.3061H227.045C226.812 35.2737 226.179 33.3077 225.184 31.5211Z" fill="#2191D9"/>
<path d="M174.162 29.4879C172.165 29.4909 170.227 30.1705 168.665 31.4162V24H165V39.1471C165 44.466 169.107 48.7771 174.162 48.7771C179.217 48.7771 183.324 44.466 183.324 39.1471C183.324 33.8281 179.223 29.4879 174.162 29.4879ZM174.162 45.0835C171.125 45.0835 168.665 42.4153 168.665 39.1237C168.665 35.8322 171.125 33.1581 174.162 33.1581C177.198 33.1581 179.659 35.8263 179.659 39.1237C179.659 42.4211 177.198 45.101 174.162 45.101V45.0835Z" fill="white"/>
<path d="M193.399 29.4879C191.402 29.4909 189.465 30.1705 187.902 31.4162V29.4879H184.243V48.7713H187.902V39.1412C187.902 35.8438 190.369 33.1756 193.399 33.1756C196.43 33.1756 198.896 35.8438 198.896 39.1412V48.7713H202.561V39.1412C202.561 33.8165 198.46 29.4879 193.399 29.4879Z" fill="white"/>
<path d="M235.288 46.3885V29.8782" stroke="white" stroke-width="2.30303" stroke-miterlimit="10"/>
<path d="M249.61 32.5173C249.864 32.822 249.994 33.2105 249.976 33.6067C249.992 33.851 249.948 34.0954 249.846 34.3181C249.745 34.5407 249.59 34.7347 249.395 34.8826C248.859 35.2204 248.229 35.3776 247.597 35.3312H244.689V28.8063H247.405C247.989 28.7706 248.568 28.9238 249.057 29.2432C249.249 29.3844 249.403 29.5713 249.505 29.7869C249.606 30.0026 249.652 30.2402 249.639 30.4783C249.65 30.8147 249.547 31.145 249.348 31.4162C249.149 31.6877 248.87 31.8911 248.551 31.9988C248.952 32.0476 249.325 32.2303 249.61 32.5173ZM245.148 29.2199V31.8182H247.37C247.834 31.8471 248.296 31.731 248.691 31.4862C248.834 31.3687 248.95 31.2207 249.03 31.053C249.109 30.8852 249.15 30.7018 249.15 30.5162C249.15 30.3305 249.109 30.1471 249.03 29.9794C248.95 29.8116 248.834 29.6636 248.691 29.5462C248.294 29.3061 247.833 29.1923 247.37 29.2199H245.148ZM249.017 34.5913C249.169 34.4691 249.293 34.3139 249.378 34.1374C249.462 33.961 249.506 33.7676 249.506 33.5718C249.506 33.376 249.462 33.1826 249.378 33.0061C249.293 32.8297 249.169 32.6745 249.017 32.5523C248.577 32.3078 248.076 32.1946 247.574 32.226H245.148V34.9234H247.574C248.077 34.956 248.578 34.8406 249.017 34.5913Z" fill="white"/>
<path d="M254.549 30.8919C254.718 31.0724 254.849 31.2863 254.932 31.5199C255.015 31.7536 255.049 32.0019 255.032 32.2493V35.3137H254.584V34.4515C254.431 34.7381 254.193 34.9702 253.903 35.1156C253.571 35.2821 253.204 35.3642 252.833 35.3545C252.374 35.3793 251.922 35.2433 251.553 34.9699C251.403 34.8494 251.283 34.6956 251.202 34.5208C251.121 34.3459 251.082 34.1547 251.088 33.9621C251.081 33.7769 251.116 33.5927 251.19 33.4231C251.265 33.2536 251.377 33.1032 251.518 32.9834C251.919 32.6954 252.411 32.5611 252.902 32.6047H254.566V32.2085C254.579 32.0206 254.553 31.8321 254.49 31.6547C254.427 31.4772 254.328 31.3148 254.2 31.1774C253.902 30.921 253.515 30.7931 253.124 30.822C252.808 30.8217 252.494 30.8789 252.199 30.9909C251.922 31.0906 251.667 31.2429 251.448 31.4395L251.216 31.1016C251.472 30.879 251.768 30.7071 252.088 30.5948C252.432 30.4732 252.794 30.4121 253.158 30.4142C253.667 30.3843 254.166 30.5559 254.549 30.8919ZM253.926 34.7311C254.22 34.5361 254.444 34.2525 254.566 33.9213V32.9834H252.908C252.544 32.9526 252.179 33.0449 251.873 33.2455C251.767 33.3314 251.683 33.441 251.627 33.5655C251.572 33.69 251.546 33.8259 251.553 33.9621C251.548 34.106 251.577 34.2491 251.638 34.3797C251.698 34.5103 251.789 34.6247 251.902 34.7136C252.197 34.912 252.548 35.0082 252.902 34.9874C253.262 35.0058 253.618 34.9165 253.926 34.7311Z" fill="white"/>
<path d="M260.767 30.9618C260.952 31.1682 261.095 31.4095 261.185 31.6716C261.276 31.9337 261.314 32.2113 261.297 32.4882V35.3137H260.831V32.5115C260.862 32.056 260.714 31.6064 260.418 31.2589C260.264 31.1116 260.081 30.9978 259.881 30.9247C259.681 30.8515 259.467 30.8205 259.255 30.8337C259.007 30.8204 258.758 30.8591 258.526 30.9474C258.294 31.0357 258.082 31.1715 257.905 31.3463C257.737 31.5319 257.608 31.7489 257.524 31.9849C257.44 32.2208 257.403 32.4711 257.417 32.7212V35.3137H256.951V30.4492H257.393V31.5036C257.556 31.1657 257.818 30.8854 258.144 30.6997C258.5 30.5045 258.901 30.4061 259.307 30.4142C259.575 30.3999 259.843 30.4412 260.094 30.5354C260.345 30.6296 260.575 30.7748 260.767 30.9618Z" fill="white"/>
<path d="M263.885 35.0515C263.515 34.8471 263.211 34.5421 263.007 34.1718C262.794 33.783 262.685 33.3453 262.693 32.9018C262.685 32.4545 262.793 32.0129 263.007 31.6201C263.211 31.2498 263.515 30.9449 263.885 30.7404C264.273 30.5315 264.707 30.4252 265.147 30.4317C265.515 30.4269 265.878 30.5045 266.212 30.6589C266.527 30.8055 266.796 31.0351 266.991 31.323L266.648 31.5735C266.482 31.3415 266.26 31.1552 266.002 31.0317C265.705 30.9008 265.382 30.8395 265.057 30.8527C264.733 30.8658 264.415 30.953 264.129 31.1075C263.829 31.2755 263.583 31.5262 263.42 31.8299C263.245 32.1595 263.156 32.5285 263.164 32.9018C263.158 33.2749 263.246 33.6436 263.42 33.9738C263.586 34.275 263.831 34.5249 264.129 34.6961C264.441 34.8685 264.792 34.9568 265.147 34.9525C265.442 34.9535 265.733 34.892 266.002 34.7719C266.261 34.6481 266.484 34.4595 266.648 34.2243L266.991 34.4748C266.796 34.7627 266.527 34.9923 266.212 35.1389C265.88 35.298 265.515 35.3778 265.147 35.3719C264.706 35.3803 264.27 35.2696 263.885 35.0515Z" fill="white"/>
<path d="M268.958 35.0515C268.595 34.8362 268.301 34.5233 268.108 34.1485C267.893 33.7603 267.783 33.3225 267.788 32.8785C267.784 32.4327 267.894 31.9933 268.108 31.6027C268.311 31.2354 268.611 30.9311 268.975 30.723C269.357 30.5164 269.785 30.4083 270.22 30.4083C270.654 30.4083 271.082 30.5164 271.465 30.723C271.829 30.9311 272.128 31.2354 272.331 31.6027C272.546 31.9933 272.656 32.4327 272.651 32.8785C272.657 33.3225 272.547 33.7603 272.331 34.1485C272.13 34.5171 271.83 34.8218 271.465 35.0282C271.083 35.2383 270.655 35.3485 270.22 35.3485C269.785 35.3485 269.356 35.2383 268.975 35.0282L268.958 35.0515ZM271.203 34.6903C271.498 34.5163 271.739 34.2643 271.901 33.9621C272.075 33.6361 272.163 33.2712 272.157 32.9018C272.163 32.5305 272.075 32.1638 271.901 31.8357C271.739 31.5335 271.498 31.2815 271.203 31.1075C270.896 30.9392 270.552 30.851 270.202 30.851C269.853 30.851 269.509 30.9392 269.202 31.1075C268.907 31.2815 268.665 31.5335 268.504 31.8357C268.33 32.1638 268.242 32.5305 268.248 32.9018C268.242 33.2712 268.33 33.6361 268.504 33.9621C268.665 34.2643 268.907 34.5163 269.202 34.6903C269.507 34.8623 269.852 34.9527 270.202 34.9527C270.553 34.9527 270.897 34.8623 271.203 34.6903Z" fill="white"/>
<path d="M281.918 28.8063V35.3137H281.529L277.09 29.6452V35.3137H276.613V28.7888H277.014L281.447 34.4573V28.7888L281.918 28.8063Z" fill="white"/>
<path d="M287.066 30.8919C287.238 31.0708 287.371 31.2844 287.454 31.5185C287.537 31.7525 287.57 32.0017 287.549 32.2493V35.3137H287.107V34.4515C286.951 34.7357 286.714 34.9669 286.426 35.1156C286.094 35.2817 285.727 35.3637 285.356 35.3545C284.898 35.3799 284.445 35.2438 284.076 34.97C283.932 34.8493 283.815 34.699 283.734 34.5293C283.652 34.3595 283.608 34.1743 283.604 33.986C283.6 33.7977 283.637 33.6107 283.711 33.4378C283.786 33.2648 283.896 33.1099 284.036 32.9834C284.437 32.6954 284.928 32.5611 285.42 32.6047H287.084V32.2085C287.097 32.0207 287.071 31.8321 287.008 31.6547C286.945 31.4773 286.846 31.3148 286.717 31.1774C286.42 30.921 286.033 30.7932 285.641 30.822C285.325 30.8222 285.012 30.8795 284.716 30.991C284.441 31.0933 284.186 31.2453 283.966 31.4395L283.733 31.1017C283.991 30.8778 284.289 30.7058 284.611 30.5948C284.955 30.4728 285.317 30.4116 285.682 30.4142C286.188 30.384 286.686 30.5557 287.066 30.8919ZM286.45 34.7311C286.74 34.5341 286.962 34.2509 287.084 33.9213V32.9834H285.432C285.065 32.9518 284.698 33.0441 284.39 33.2455C284.285 33.3314 284.201 33.441 284.145 33.5655C284.089 33.69 284.064 33.8259 284.07 33.9621C284.065 34.1067 284.095 34.2504 284.156 34.3812C284.218 34.512 284.31 34.626 284.425 34.7136C284.717 34.9128 285.067 35.0091 285.42 34.9875C285.781 35.0049 286.139 34.9157 286.45 34.7311Z" fill="white"/>
<path d="M290.138 35.0515C289.769 34.847 289.467 34.5419 289.265 34.1718C289.047 33.7846 288.937 33.3461 288.945 32.9018C288.936 32.4537 289.047 32.0113 289.265 31.6201C289.467 31.25 289.769 30.945 290.138 30.7404C290.527 30.5315 290.964 30.4252 291.406 30.4317C291.773 30.4269 292.137 30.5045 292.47 30.6589C292.784 30.807 293.053 31.0362 293.25 31.323L292.901 31.5735C292.734 31.3415 292.512 31.1552 292.255 31.0317C291.989 30.9083 291.699 30.8466 291.406 30.8511C291.05 30.8432 290.698 30.9318 290.388 31.1075C290.085 31.2728 289.838 31.5242 289.678 31.8299C289.503 32.1595 289.415 32.5285 289.422 32.9018C289.416 33.2749 289.504 33.6436 289.678 33.9738C289.842 34.2763 290.088 34.5266 290.388 34.6961C290.673 34.8506 290.989 34.9377 291.313 34.9508C291.636 34.9639 291.959 34.9027 292.255 34.7719C292.514 34.6481 292.736 34.4595 292.901 34.2243L293.25 34.4748C293.053 34.7615 292.784 34.9908 292.47 35.1389C292.138 35.298 291.774 35.3778 291.406 35.3719C290.962 35.3802 290.524 35.2696 290.138 35.0515Z" fill="white"/>
<path d="M294.605 29.1791C294.569 29.1445 294.541 29.1029 294.522 29.0567C294.503 29.0106 294.494 28.9611 294.495 28.9112C294.493 28.8612 294.502 28.8114 294.521 28.7652C294.54 28.7189 294.569 28.6773 294.605 28.6432C294.64 28.6057 294.682 28.576 294.73 28.5559C294.777 28.5358 294.827 28.5259 294.879 28.5266C294.928 28.5256 294.978 28.5349 295.024 28.5539C295.07 28.573 295.112 28.6014 295.146 28.6373C295.182 28.6704 295.211 28.7109 295.23 28.7562C295.249 28.8015 295.258 28.8504 295.257 28.8995C295.258 28.9503 295.249 29.0008 295.23 29.0479C295.211 29.0949 295.182 29.1376 295.146 29.1733C295.073 29.2421 294.976 29.2804 294.876 29.2804C294.775 29.2804 294.678 29.2421 294.605 29.1733V29.1791ZM294.646 30.4666H295.111V35.3137H294.646V30.4666Z" fill="white"/>
<path d="M297.729 35.0515C297.362 34.8452 297.06 34.5406 296.856 34.1718C296.643 33.783 296.535 33.3453 296.542 32.9018C296.536 32.4565 296.644 32.0171 296.856 31.6259C297.063 31.2592 297.364 30.9552 297.729 30.7462C298.111 30.5397 298.537 30.4316 298.971 30.4316C299.405 30.4316 299.831 30.5397 300.213 30.7462C300.578 30.9552 300.879 31.2592 301.086 31.6259C301.298 32.0171 301.406 32.4565 301.4 32.9018C301.407 33.3453 301.299 33.783 301.086 34.1718C300.882 34.5406 300.58 34.8452 300.213 35.0515C299.833 35.2616 299.405 35.3719 298.971 35.3719C298.537 35.3719 298.109 35.2616 297.729 35.0515ZM299.969 34.6903C300.264 34.515 300.507 34.2635 300.672 33.9621C300.846 33.6361 300.934 33.2712 300.928 32.9018C300.941 32.5256 300.857 32.1526 300.684 31.8182C300.519 31.5168 300.276 31.2653 299.98 31.09C299.675 30.9217 299.331 30.8335 298.983 30.8335C298.634 30.8335 298.291 30.9217 297.985 31.09C297.69 31.264 297.449 31.516 297.287 31.8182C297.109 32.1448 297.019 32.5122 297.025 32.8843C297.018 33.2546 297.109 33.6202 297.287 33.9446C297.449 34.2469 297.69 34.4988 297.985 34.6729C298.289 34.8449 298.633 34.9353 298.983 34.9353C299.332 34.9353 299.676 34.8449 299.98 34.6729L299.969 34.6903Z" fill="white"/>
<path d="M306.658 30.9619C306.845 31.1675 306.987 31.4087 307.078 31.6709C307.169 31.9332 307.207 32.2112 307.188 32.4882V35.3137H306.722V32.5115C306.753 32.056 306.605 31.6064 306.309 31.2589C306.155 31.111 305.973 30.9968 305.772 30.9236C305.572 30.8504 305.359 30.8198 305.146 30.8337C304.898 30.8196 304.649 30.858 304.417 30.9463C304.184 31.0347 303.973 31.1709 303.796 31.3463C303.626 31.5307 303.495 31.7474 303.41 31.9836C303.325 32.2197 303.288 32.4706 303.302 32.7212V35.3137H302.836V30.4492H303.284V31.5036C303.447 31.1657 303.709 30.8854 304.035 30.6997C304.391 30.5045 304.792 30.4061 305.198 30.4142C305.466 30.3996 305.734 30.4407 305.985 30.5349C306.237 30.6292 306.466 30.7745 306.658 30.9619Z" fill="white"/>
<path d="M312.132 30.8919C312.302 31.0724 312.433 31.2863 312.516 31.5199C312.599 31.7536 312.633 32.0019 312.615 32.2493V35.3137H312.167V34.4515C312.014 34.7381 311.777 34.9702 311.487 35.1156C311.155 35.2821 310.787 35.3642 310.416 35.3545C309.958 35.3793 309.505 35.2433 309.136 34.9699C308.993 34.8483 308.878 34.6975 308.797 34.5276C308.717 34.3577 308.673 34.1726 308.67 33.9846C308.667 33.7965 308.704 33.61 308.778 33.4374C308.852 33.2647 308.963 33.1099 309.101 32.9834C309.503 32.6954 309.994 32.5611 310.486 32.6047H312.15V32.2085C312.163 32.0206 312.137 31.8321 312.074 31.6547C312.011 31.4772 311.912 31.3148 311.783 31.1774C311.486 30.921 311.099 30.7931 310.707 30.822C310.391 30.8222 310.078 30.8794 309.782 30.9909C309.505 31.0906 309.251 31.2429 309.032 31.4395L308.799 31.1016C309.055 30.879 309.351 30.7071 309.672 30.5948C310.015 30.4732 310.377 30.4121 310.742 30.4142C311.25 30.3843 311.749 30.5559 312.132 30.8919ZM311.51 34.7311C311.804 34.5361 312.028 34.2525 312.15 33.9213V32.9834H310.492C310.127 32.9526 309.763 33.0449 309.456 33.2455C309.351 33.3314 309.266 33.441 309.211 33.5655C309.155 33.69 309.13 33.8259 309.136 33.9621C309.131 34.106 309.16 34.2491 309.221 34.3797C309.282 34.5103 309.372 34.6247 309.485 34.7136C309.78 34.912 310.132 35.0082 310.486 34.9874C310.845 35.0058 311.202 34.9165 311.51 34.7311Z" fill="white"/>
<path d="M314.535 28.4159H315V35.3137H314.535V28.4159Z" fill="white"/>
<path d="M248.842 39.6015V46.5167H248.388V45.3515C248.208 45.7163 247.925 46.0202 247.574 46.2254C247.221 46.4311 246.819 46.5377 246.41 46.5342C245.98 46.5409 245.556 46.4301 245.183 46.2138C244.821 46.0076 244.523 45.7051 244.322 45.3399C244.116 44.9453 244.008 44.5065 244.008 44.0611C244.008 43.6157 244.116 43.1769 244.322 42.7824C244.521 42.4142 244.819 42.1094 245.183 41.9027C245.559 41.6951 245.981 41.5887 246.41 41.5939C246.817 41.5818 247.219 41.6847 247.57 41.8907C247.92 42.0968 248.206 42.3978 248.394 42.7591V39.5782L248.842 39.6015ZM247.423 45.8759C247.718 45.7018 247.959 45.4499 248.121 45.1476C248.294 44.8216 248.382 44.4568 248.377 44.0873C248.382 43.716 248.294 43.3493 248.121 43.0212C247.961 42.7193 247.719 42.4688 247.423 42.2988C247.117 42.1268 246.772 42.0365 246.422 42.0365C246.072 42.0365 245.727 42.1268 245.421 42.2988C245.125 42.4688 244.883 42.7193 244.723 43.0212C244.55 43.3493 244.462 43.716 244.467 44.0873C244.462 44.4568 244.55 44.8216 244.723 45.1476C244.885 45.4499 245.127 45.7018 245.421 45.8759C245.727 46.0478 246.072 46.1382 246.422 46.1382C246.772 46.1382 247.117 46.0478 247.423 45.8759Z" fill="white"/>
<path d="M254.909 44.198H250.733C250.74 44.5547 250.838 44.9036 251.018 45.2117C251.196 45.5011 251.449 45.7366 251.751 45.8933C252.07 46.0594 252.426 46.1435 252.786 46.138C253.09 46.1409 253.39 46.0814 253.67 45.9633C253.933 45.8521 254.165 45.678 254.345 45.4564L254.613 45.7652C254.396 46.0189 254.123 46.2184 253.816 46.3477C253.488 46.4845 253.135 46.5538 252.78 46.5516C252.327 46.5606 251.88 46.4501 251.483 46.2312C251.112 46.0293 250.805 45.7263 250.599 45.3574C250.379 44.9688 250.266 44.5283 250.273 44.0815C250.268 43.6379 250.372 43.1998 250.575 42.8057C250.774 42.4442 251.068 42.1444 251.425 41.9389C251.782 41.7334 252.188 41.6301 252.6 41.6405C253.008 41.6395 253.409 41.746 253.763 41.9493C254.116 42.1582 254.404 42.4607 254.595 42.8231C254.8 43.2147 254.904 43.6512 254.898 44.0932L254.909 44.198ZM251.681 42.2522C251.407 42.4035 251.179 42.6272 251.023 42.8989C250.858 43.1855 250.76 43.5064 250.738 43.8368H254.461C254.45 43.5072 254.354 43.186 254.182 42.9047C254.023 42.6355 253.796 42.4125 253.525 42.258C253.243 42.0994 252.923 42.019 252.6 42.025C252.279 42.0207 251.963 42.0989 251.681 42.2522Z" fill="white"/>
<path d="M263.397 46.0914V46.5167H258.906V39.9743H263.257V40.4054H259.383V42.9804H262.873V43.3999H259.383V46.0739L263.397 46.0914Z" fill="white"/>
<path d="M272.448 42.1473C272.631 42.3545 272.772 42.5962 272.86 42.8582C272.949 43.1203 272.985 43.3976 272.966 43.6737V46.5167H272.5V43.7145C272.534 43.2605 272.39 42.8112 272.099 42.462C271.953 42.3159 271.779 42.2025 271.586 42.1291C271.394 42.0558 271.188 42.0243 270.982 42.0367C270.742 42.0242 270.502 42.0635 270.278 42.1519C270.054 42.2404 269.852 42.3759 269.685 42.5493C269.351 42.927 269.18 43.421 269.208 43.9242V46.5167H268.742V43.7145C268.777 43.2605 268.633 42.8112 268.341 42.462C268.196 42.3159 268.021 42.2025 267.828 42.1291C267.636 42.0558 267.43 42.0243 267.224 42.0367C266.984 42.0242 266.744 42.0635 266.52 42.1519C266.296 42.2404 266.094 42.3759 265.927 42.5493C265.592 42.9264 265.419 43.4202 265.444 43.9242V46.5167H264.979V41.6522H265.427V42.695C265.582 42.3629 265.834 42.085 266.148 41.8968C266.503 41.6989 266.905 41.6021 267.311 41.6172C267.707 41.6047 268.097 41.7079 268.434 41.9143C268.747 42.1212 268.979 42.4298 269.091 42.7882C269.247 42.4302 269.512 42.1306 269.848 41.9318C270.212 41.7163 270.629 41.6073 271.052 41.6172C271.308 41.6053 271.565 41.6462 271.805 41.7374C272.045 41.8286 272.264 41.9681 272.448 42.1473Z" fill="white"/>
<path d="M278.579 41.9318C278.941 42.1403 279.239 42.4446 279.44 42.8115C279.654 43.2021 279.762 43.6419 279.754 44.0873C279.762 44.5345 279.653 44.9761 279.44 45.369C279.239 45.7342 278.941 46.0367 278.579 46.2429C278.205 46.4548 277.781 46.5633 277.352 46.5574C276.944 46.5603 276.543 46.4558 276.188 46.2545C275.844 46.0557 275.563 45.7627 275.38 45.4098V48.3227H274.914V41.6521H275.362V42.8173C275.544 42.4534 275.827 42.15 276.177 41.9434C276.53 41.7383 276.932 41.6316 277.34 41.6346C277.772 41.6213 278.2 41.7239 278.579 41.9318ZM278.329 45.8758C278.624 45.7005 278.867 45.449 279.033 45.1476C279.207 44.8216 279.295 44.4568 279.289 44.0873C279.295 43.716 279.207 43.3493 279.033 43.0212C278.869 42.7203 278.625 42.4704 278.329 42.2988C278.023 42.122 277.676 42.0314 277.323 42.0366C276.971 42.0313 276.626 42.1219 276.322 42.2988C276.027 42.4706 275.786 42.7206 275.624 43.0212C275.45 43.3493 275.362 43.716 275.368 44.0873C275.362 44.4568 275.45 44.8216 275.624 45.1476C275.787 45.4486 276.028 45.7002 276.322 45.8758C276.626 46.0527 276.971 46.1433 277.323 46.138C277.666 46.138 278.003 46.0476 278.3 45.8758H278.329Z" fill="white"/>
<path d="M282.314 41.8968C282.669 41.6988 283.071 41.6021 283.477 41.6172V42.0716H283.366C283.131 42.0583 282.895 42.0969 282.676 42.1844C282.457 42.272 282.26 42.4064 282.098 42.5784C281.776 42.9748 281.614 43.478 281.645 43.9883V46.5225H281.179V41.658H281.627V42.7241C281.758 42.3799 282 42.089 282.314 41.8968Z" fill="white"/>
<path d="M288.806 44.1981H284.629C284.635 44.5556 284.736 44.9052 284.92 45.2117C285.094 45.5022 285.346 45.7382 285.647 45.8933C285.968 46.0602 286.326 46.1443 286.688 46.1381C286.99 46.1404 287.289 46.081 287.566 45.9633C287.829 45.8521 288.061 45.6781 288.241 45.4564L288.509 45.7652C288.292 46.0189 288.019 46.2184 287.712 46.3478C287.384 46.4845 287.032 46.5538 286.676 46.5517C286.225 46.5607 285.78 46.4502 285.385 46.2312C285.012 46.0297 284.704 45.7268 284.495 45.3574C284.277 44.9683 284.166 44.5278 284.175 44.0815C284.167 43.6376 284.271 43.1988 284.478 42.8057C284.667 42.4403 284.955 42.1355 285.309 41.926C285.663 41.7206 286.064 41.6121 286.473 41.6114C286.881 41.6104 287.282 41.7169 287.636 41.9202C287.986 42.1311 288.271 42.4332 288.462 42.7941C288.67 43.1846 288.774 43.6218 288.765 44.0641L288.806 44.1981ZM285.56 42.2522C285.294 42.4042 285.074 42.6231 284.92 42.8872C284.753 43.1732 284.658 43.4947 284.64 43.8252H288.363C288.347 43.4964 288.251 43.1766 288.084 42.8931C287.921 42.6249 287.693 42.4024 287.421 42.2464C287.141 42.0886 286.823 42.0081 286.502 42.0134C286.172 42.0088 285.847 42.0912 285.56 42.2522Z" fill="white"/>
<path d="M294.634 41.6522V45.9982C294.684 46.3196 294.657 46.6481 294.556 46.9572C294.455 47.2662 294.283 47.5472 294.054 47.7774C293.824 48.0076 293.544 48.1806 293.236 48.2824C292.927 48.3842 292.599 48.412 292.278 48.3635C291.849 48.3655 291.423 48.2966 291.016 48.1596C290.655 48.0432 290.326 47.8436 290.056 47.577L290.306 47.2274C290.561 47.4557 290.857 47.6319 291.179 47.746C291.53 47.8709 291.9 47.934 292.273 47.9323C292.531 47.9743 292.795 47.9544 293.044 47.8742C293.293 47.794 293.519 47.6558 293.704 47.4709C293.889 47.2861 294.028 47.06 294.109 46.811C294.189 46.5621 294.21 46.2975 294.169 46.039V45.2175C293.976 45.5617 293.689 45.8444 293.343 46.0332C292.968 46.2282 292.552 46.33 292.13 46.33C291.708 46.33 291.292 46.2282 290.917 46.0332C290.554 45.8384 290.251 45.5458 290.045 45.1884C289.838 44.8148 289.73 44.3948 289.73 43.9679C289.73 43.541 289.838 43.121 290.045 42.7474C290.25 42.3902 290.553 42.0991 290.917 41.9085C291.297 41.7074 291.721 41.6052 292.15 41.6114C292.573 41.6051 292.989 41.7074 293.36 41.9085C293.713 42.0995 294.001 42.3916 294.186 42.7474V41.6463L294.634 41.6522ZM293.209 45.672C293.507 45.5143 293.755 45.2761 293.925 44.9845C294.098 44.6772 294.186 44.3294 294.181 43.9766C294.187 43.6238 294.099 43.2756 293.925 42.9688C293.753 42.6785 293.506 42.4408 293.209 42.2814C292.894 42.1153 292.542 42.0311 292.185 42.0366C291.831 42.0311 291.481 42.1153 291.167 42.2814C290.872 42.4412 290.627 42.6789 290.458 42.9688C290.283 43.2756 290.195 43.6238 290.202 43.9766C290.196 44.3294 290.285 44.6772 290.458 44.9845C290.625 45.2757 290.871 45.5139 291.167 45.672C291.479 45.8425 291.83 45.9289 292.185 45.9225C292.543 45.9288 292.895 45.8425 293.209 45.672Z" fill="white"/>
<path d="M297.264 46.237C296.895 46.0325 296.593 45.7274 296.391 45.3573C296.178 44.9685 296.07 44.5308 296.077 44.0873C296.07 43.642 296.178 43.2026 296.391 42.8115C296.595 42.4427 296.897 42.1381 297.264 41.9318C297.645 41.7253 298.072 41.6172 298.506 41.6172C298.939 41.6172 299.366 41.7253 299.748 41.9318C300.112 42.1407 300.414 42.4447 300.62 42.8115C300.833 43.2026 300.941 43.642 300.934 44.0873C300.942 44.5308 300.833 44.9685 300.62 45.3573C300.414 45.7241 300.112 46.0281 299.748 46.237C299.367 46.4472 298.94 46.5574 298.506 46.5574C298.071 46.5574 297.644 46.4472 297.264 46.237ZM299.503 45.8758C299.798 45.7018 300.04 45.4499 300.201 45.1476C300.378 44.8227 300.466 44.4571 300.457 44.0873C300.466 43.7157 300.378 43.3482 300.201 43.0212C300.045 42.7237 299.81 42.4757 299.521 42.3046C299.215 42.1326 298.871 42.0423 298.52 42.0423C298.17 42.0423 297.825 42.1326 297.52 42.3046C297.226 42.478 296.985 42.7276 296.822 43.027C296.648 43.3551 296.56 43.7219 296.566 44.0932C296.56 44.4626 296.648 44.8275 296.822 45.1535C296.986 45.4533 297.227 45.7044 297.52 45.8817C297.825 46.0537 298.17 46.144 298.52 46.144C298.871 46.144 299.215 46.0537 299.521 45.8817L299.503 45.8758Z" fill="white"/>
<path d="M302.487 46.3827C302.185 46.2927 301.904 46.1421 301.661 45.9399L301.877 45.5671C302.107 45.7487 302.366 45.8887 302.644 45.9807C302.957 46.0956 303.288 46.1528 303.622 46.1496C304 46.1763 304.377 46.0934 304.71 45.9108C304.82 45.8382 304.91 45.7386 304.971 45.6213C305.032 45.504 305.062 45.373 305.059 45.2408C305.063 45.1502 305.049 45.0597 305.016 44.9753C304.982 44.8909 304.932 44.8146 304.867 44.7515C304.732 44.6304 304.57 44.5427 304.395 44.4951C304.141 44.4214 303.883 44.3611 303.622 44.3145C303.307 44.263 302.996 44.189 302.691 44.0931C302.47 44.0091 302.271 43.8756 302.109 43.7028C301.935 43.4947 301.846 43.2284 301.859 42.9571C301.858 42.7708 301.9 42.5868 301.984 42.4205C302.068 42.2543 302.191 42.1107 302.342 42.0017C302.739 41.724 303.22 41.5904 303.703 41.623C304.014 41.6223 304.323 41.6654 304.622 41.7512C304.889 41.8207 305.141 41.9371 305.367 42.0949L305.157 42.4678C304.95 42.3227 304.72 42.2124 304.477 42.1415C304.221 42.0697 303.957 42.0325 303.692 42.0308C303.333 42.0093 302.976 42.0966 302.668 42.2813C302.56 42.3552 302.473 42.4544 302.413 42.5703C302.353 42.6861 302.323 42.815 302.325 42.9454C302.319 43.0392 302.334 43.133 302.368 43.2205C302.402 43.308 302.455 43.387 302.522 43.4523C302.66 43.5769 302.822 43.6704 302.999 43.7261C303.261 43.8025 303.527 43.8647 303.796 43.9125C304.107 43.9667 304.414 44.0407 304.715 44.1339C304.939 44.208 305.139 44.3384 305.297 44.5126C305.468 44.7106 305.556 44.9676 305.541 45.2292C305.545 45.4201 305.501 45.6089 305.413 45.778C305.324 45.9471 305.194 46.091 305.035 46.1963C304.616 46.4673 304.12 46.596 303.622 46.5633C303.236 46.5679 302.853 46.5068 302.487 46.3827Z" fill="white"/>
</svg>
